{
	"patcher" : 	{
		"fileversion" : 1,
		"rect" : [ 25.0, 69.0, 1174.0, 787.0 ],
		"bglocked" : 0,
		"defrect" : [ 25.0, 69.0, 1174.0, 787.0 ],
		"openrect" : [ 0.0, 0.0, 0.0, 0.0 ],
		"openinpresentation" : 0,
		"default_fontsize" : 12.0,
		"default_fontface" : 0,
		"default_fontname" : "Arial",
		"gridonopen" : 0,
		"gridsize" : [ 8.0, 8.0 ],
		"gridsnaponopen" : 0,
		"toolbarvisible" : 1,
		"boxanimatetime" : 200,
		"imprint" : 0,
		"enablehscroll" : 1,
		"enablevscroll" : 1,
		"devicewidth" : 0.0,
		"boxes" : [ 			{
				"box" : 				{
					"maxclass" : "number~",
					"mode" : 2,
					"fontsize" : 12.0,
					"numinlets" : 2,
					"sig" : 0.0,
					"numoutlets" : 2,
					"patching_rect" : [ 280.0, 448.0, 187.0, 20.0 ],
					"id" : "obj-17",
					"fontname" : "Arial",
					"outlettype" : [ "signal", "float" ]
				}

			}
, 			{
				"box" : 				{
					"maxclass" : "newobj",
					"text" : "* 44100",
					"fontsize" : 12.0,
					"numinlets" : 2,
					"numoutlets" : 1,
					"patching_rect" : [ 344.0, 400.0, 52.0, 20.0 ],
					"id" : "obj-16",
					"fontname" : "Arial",
					"outlettype" : [ "int" ]
				}

			}
, 			{
				"box" : 				{
					"maxclass" : "message",
					"text" : "256000",
					"fontsize" : 12.0,
					"numinlets" : 2,
					"numoutlets" : 1,
					"patching_rect" : [ 344.0, 376.0, 51.0, 18.0 ],
					"id" : "obj-8",
					"fontname" : "Arial",
					"outlettype" : [ "" ]
				}

			}
, 			{
				"box" : 				{
					"maxclass" : "newobj",
					"text" : "t dump clear",
					"fontsize" : 12.0,
					"numinlets" : 1,
					"numoutlets" : 2,
					"patching_rect" : [ 24.0, 112.0, 77.0, 20.0 ],
					"id" : "obj-15",
					"fontname" : "Arial",
					"outlettype" : [ "dump", "clear" ]
				}

			}
, 			{
				"box" : 				{
					"maxclass" : "button",
					"numinlets" : 1,
					"numoutlets" : 1,
					"patching_rect" : [ 24.0, 88.0, 20.0, 20.0 ],
					"id" : "obj-14",
					"outlettype" : [ "bang" ]
				}

			}
, 			{
				"box" : 				{
					"maxclass" : "newobj",
					"text" : "uzi 3",
					"fontsize" : 12.0,
					"numinlets" : 2,
					"numoutlets" : 3,
					"patching_rect" : [ 208.0, 72.0, 46.0, 20.0 ],
					"id" : "obj-13",
					"fontname" : "Arial",
					"outlettype" : [ "bang", "bang", "int" ]
				}

			}
, 			{
				"box" : 				{
					"maxclass" : "newobj",
					"text" : "t b s",
					"fontsize" : 12.0,
					"numinlets" : 1,
					"numoutlets" : 2,
					"patching_rect" : [ 208.0, 40.0, 33.0, 20.0 ],
					"id" : "obj-12",
					"fontname" : "Arial",
					"outlettype" : [ "bang", "" ]
				}

			}
, 			{
				"box" : 				{
					"maxclass" : "message",
					"text" : "test1",
					"fontsize" : 12.0,
					"numinlets" : 2,
					"numoutlets" : 1,
					"patching_rect" : [ 208.0, 16.0, 37.0, 18.0 ],
					"id" : "obj-11",
					"fontname" : "Arial",
					"outlettype" : [ "" ]
				}

			}
, 			{
				"box" : 				{
					"maxclass" : "newobj",
					"text" : "route 1 2 3",
					"fontsize" : 12.0,
					"numinlets" : 1,
					"numoutlets" : 4,
					"patching_rect" : [ 208.0, 136.0, 68.0, 20.0 ],
					"id" : "obj-10",
					"fontname" : "Arial",
					"outlettype" : [ "", "", "", "" ]
				}

			}
, 			{
				"box" : 				{
					"maxclass" : "newobj",
					"text" : "sprintf %d read /Users/john/Workspace/zzz_newPiece_tc/%s/perc_closest_%d.txt",
					"fontsize" : 12.0,
					"numinlets" : 3,
					"numoutlets" : 1,
					"patching_rect" : [ 208.0, 112.0, 445.0, 20.0 ],
					"id" : "obj-9",
					"fontname" : "Arial",
					"outlettype" : [ "" ]
				}

			}
, 			{
				"box" : 				{
					"maxclass" : "message",
					"text" : "set closest3",
					"fontsize" : 12.0,
					"numinlets" : 2,
					"numoutlets" : 1,
					"patching_rect" : [ 816.0, 272.0, 74.0, 18.0 ],
					"id" : "obj-74",
					"fontname" : "Arial",
					"outlettype" : [ "" ]
				}

			}
, 			{
				"box" : 				{
					"maxclass" : "message",
					"text" : "set closest2",
					"fontsize" : 12.0,
					"numinlets" : 2,
					"numoutlets" : 1,
					"patching_rect" : [ 736.0, 272.0, 74.0, 18.0 ],
					"id" : "obj-73",
					"fontname" : "Arial",
					"outlettype" : [ "" ]
				}

			}
, 			{
				"box" : 				{
					"maxclass" : "message",
					"text" : "set closest1",
					"fontsize" : 12.0,
					"numinlets" : 2,
					"numoutlets" : 1,
					"patching_rect" : [ 656.0, 272.0, 74.0, 18.0 ],
					"id" : "obj-69",
					"fontname" : "Arial",
					"outlettype" : [ "" ]
				}

			}
, 			{
				"box" : 				{
					"maxclass" : "newobj",
					"text" : "p",
					"fontsize" : 12.0,
					"numinlets" : 1,
					"numoutlets" : 3,
					"patching_rect" : [ 400.0, 240.0, 91.0, 20.0 ],
					"id" : "obj-66",
					"fontname" : "Arial",
					"outlettype" : [ "float", "float", "int" ],
					"patcher" : 					{
						"fileversion" : 1,
						"rect" : [ 0.0, 0.0, 640.0, 480.0 ],
						"bglocked" : 0,
						"defrect" : [ 0.0, 0.0, 640.0, 480.0 ],
						"openrect" : [ 0.0, 0.0, 0.0, 0.0 ],
						"openinpresentation" : 0,
						"default_fontsize" : 12.0,
						"default_fontface" : 0,
						"default_fontname" : "Arial",
						"gridonopen" : 0,
						"gridsize" : [ 8.0, 8.0 ],
						"gridsnaponopen" : 0,
						"toolbarvisible" : 1,
						"boxanimatetime" : 200,
						"imprint" : 0,
						"enablehscroll" : 1,
						"enablevscroll" : 1,
						"devicewidth" : 0.0,
						"boxes" : [ 							{
								"box" : 								{
									"maxclass" : "newobj",
									"text" : "* 44100.",
									"fontsize" : 12.0,
									"numinlets" : 2,
									"numoutlets" : 1,
									"patching_rect" : [ 50.0, 156.0, 55.0, 20.0 ],
									"id" : "obj-28",
									"fontname" : "Arial",
									"outlettype" : [ "float" ]
								}

							}
, 							{
								"box" : 								{
									"maxclass" : "newobj",
									"text" : "t f 1.",
									"fontsize" : 12.0,
									"numinlets" : 1,
									"numoutlets" : 2,
									"patching_rect" : [ 82.0, 124.0, 34.0, 20.0 ],
									"id" : "obj-27",
									"fontname" : "Arial",
									"outlettype" : [ "float", "float" ]
								}

							}
, 							{
								"box" : 								{
									"maxclass" : "newobj",
									"text" : "t 3",
									"fontsize" : 12.0,
									"numinlets" : 1,
									"numoutlets" : 1,
									"patching_rect" : [ 234.0, 196.0, 24.0, 20.0 ],
									"id" : "obj-26",
									"fontname" : "Arial",
									"outlettype" : [ "int" ]
								}

							}
, 							{
								"box" : 								{
									"maxclass" : "newobj",
									"text" : "t 2",
									"fontsize" : 12.0,
									"numinlets" : 1,
									"numoutlets" : 1,
									"patching_rect" : [ 186.0, 196.0, 24.0, 20.0 ],
									"id" : "obj-25",
									"fontname" : "Arial",
									"outlettype" : [ "int" ]
								}

							}
, 							{
								"box" : 								{
									"maxclass" : "newobj",
									"text" : "t 1",
									"fontsize" : 12.0,
									"numinlets" : 1,
									"numoutlets" : 1,
									"patching_rect" : [ 138.0, 196.0, 24.0, 20.0 ],
									"id" : "obj-24",
									"fontname" : "Arial",
									"outlettype" : [ "int" ]
								}

							}
, 							{
								"box" : 								{
									"maxclass" : "newobj",
									"text" : "split 22 24",
									"fontsize" : 12.0,
									"numinlets" : 3,
									"numoutlets" : 2,
									"patching_rect" : [ 234.0, 172.0, 65.0, 20.0 ],
									"id" : "obj-15",
									"fontname" : "Arial",
									"outlettype" : [ "int", "int" ]
								}

							}
, 							{
								"box" : 								{
									"maxclass" : "newobj",
									"text" : "split 17 19",
									"fontsize" : 12.0,
									"numinlets" : 3,
									"numoutlets" : 2,
									"patching_rect" : [ 186.0, 148.0, 65.0, 20.0 ],
									"id" : "obj-14",
									"fontname" : "Arial",
									"outlettype" : [ "int", "int" ]
								}

							}
, 							{
								"box" : 								{
									"maxclass" : "newobj",
									"text" : "split 12 14",
									"fontsize" : 12.0,
									"numinlets" : 3,
									"numoutlets" : 2,
									"patching_rect" : [ 138.0, 124.0, 65.0, 20.0 ],
									"id" : "obj-13",
									"fontname" : "Arial",
									"outlettype" : [ "int", "int" ]
								}

							}
, 							{
								"box" : 								{
									"maxclass" : "newobj",
									"text" : "unpack 0. 0.",
									"fontsize" : 12.0,
									"numinlets" : 1,
									"numoutlets" : 2,
									"patching_rect" : [ 82.0, 100.0, 76.0, 20.0 ],
									"id" : "obj-12",
									"fontname" : "Arial",
									"outlettype" : [ "float", "float" ]
								}

							}
, 							{
								"box" : 								{
									"maxclass" : "inlet",
									"numinlets" : 0,
									"numoutlets" : 1,
									"patching_rect" : [ 82.0, 40.0, 25.0, 25.0 ],
									"id" : "obj-59",
									"outlettype" : [ "" ],
									"comment" : ""
								}

							}
, 							{
								"box" : 								{
									"maxclass" : "outlet",
									"numinlets" : 1,
									"numoutlets" : 0,
									"patching_rect" : [ 50.0, 276.0, 25.0, 25.0 ],
									"id" : "obj-60",
									"comment" : ""
								}

							}
, 							{
								"box" : 								{
									"maxclass" : "outlet",
									"numinlets" : 1,
									"numoutlets" : 0,
									"patching_rect" : [ 97.0, 276.0, 25.0, 25.0 ],
									"id" : "obj-61",
									"comment" : ""
								}

							}
, 							{
								"box" : 								{
									"maxclass" : "outlet",
									"numinlets" : 1,
									"numoutlets" : 0,
									"patching_rect" : [ 181.0, 276.0, 25.0, 25.0 ],
									"id" : "obj-62",
									"comment" : ""
								}

							}
 ],
						"lines" : [ 							{
								"patchline" : 								{
									"source" : [ "obj-26", 0 ],
									"destination" : [ "obj-62", 0 ],
									"hidden" : 0,
									"midpoints" : [  ]
								}

							}
, 							{
								"patchline" : 								{
									"source" : [ "obj-25", 0 ],
									"destination" : [ "obj-62", 0 ],
									"hidden" : 0,
									"midpoints" : [  ]
								}

							}
, 							{
								"patchline" : 								{
									"source" : [ "obj-24", 0 ],
									"destination" : [ "obj-62", 0 ],
									"hidden" : 0,
									"midpoints" : [  ]
								}

							}
, 							{
								"patchline" : 								{
									"source" : [ "obj-27", 1 ],
									"destination" : [ "obj-61", 0 ],
									"hidden" : 0,
									"midpoints" : [  ]
								}

							}
, 							{
								"patchline" : 								{
									"source" : [ "obj-28", 0 ],
									"destination" : [ "obj-60", 0 ],
									"hidden" : 0,
									"midpoints" : [  ]
								}

							}
, 							{
								"patchline" : 								{
									"source" : [ "obj-59", 0 ],
									"destination" : [ "obj-12", 0 ],
									"hidden" : 0,
									"midpoints" : [  ]
								}

							}
, 							{
								"patchline" : 								{
									"source" : [ "obj-27", 0 ],
									"destination" : [ "obj-28", 0 ],
									"hidden" : 0,
									"midpoints" : [  ]
								}

							}
, 							{
								"patchline" : 								{
									"source" : [ "obj-12", 0 ],
									"destination" : [ "obj-27", 0 ],
									"hidden" : 0,
									"midpoints" : [  ]
								}

							}
, 							{
								"patchline" : 								{
									"source" : [ "obj-12", 1 ],
									"destination" : [ "obj-13", 0 ],
									"hidden" : 0,
									"midpoints" : [  ]
								}

							}
, 							{
								"patchline" : 								{
									"source" : [ "obj-13", 0 ],
									"destination" : [ "obj-24", 0 ],
									"hidden" : 0,
									"midpoints" : [  ]
								}

							}
, 							{
								"patchline" : 								{
									"source" : [ "obj-14", 0 ],
									"destination" : [ "obj-25", 0 ],
									"hidden" : 0,
									"midpoints" : [  ]
								}

							}
, 							{
								"patchline" : 								{
									"source" : [ "obj-15", 0 ],
									"destination" : [ "obj-26", 0 ],
									"hidden" : 0,
									"midpoints" : [  ]
								}

							}
, 							{
								"patchline" : 								{
									"source" : [ "obj-14", 1 ],
									"destination" : [ "obj-15", 0 ],
									"hidden" : 0,
									"midpoints" : [  ]
								}

							}
, 							{
								"patchline" : 								{
									"source" : [ "obj-13", 1 ],
									"destination" : [ "obj-14", 0 ],
									"hidden" : 0,
									"midpoints" : [  ]
								}

							}
 ]
					}
,
					"saved_object_attributes" : 					{
						"default_fontname" : "Arial",
						"globalpatchername" : "",
						"default_fontsize" : 12.0,
						"fontface" : 0,
						"fontsize" : 12.0,
						"default_fontface" : 0,
						"fontname" : "Arial"
					}

				}

			}
, 			{
				"box" : 				{
					"maxclass" : "newobj",
					"text" : "peek~ closest3",
					"fontsize" : 12.0,
					"numinlets" : 3,
					"numoutlets" : 1,
					"patching_rect" : [ 400.0, 288.0, 91.0, 20.0 ],
					"id" : "obj-67",
					"fontname" : "Arial",
					"outlettype" : [ "float" ]
				}

			}
, 			{
				"box" : 				{
					"maxclass" : "newobj",
					"text" : "p",
					"fontsize" : 12.0,
					"numinlets" : 1,
					"numoutlets" : 3,
					"patching_rect" : [ 296.0, 240.0, 91.0, 20.0 ],
					"id" : "obj-64",
					"fontname" : "Arial",
					"outlettype" : [ "float", "float", "int" ],
					"patcher" : 					{
						"fileversion" : 1,
						"rect" : [ 0.0, 0.0, 640.0, 480.0 ],
						"bglocked" : 0,
						"defrect" : [ 0.0, 0.0, 640.0, 480.0 ],
						"openrect" : [ 0.0, 0.0, 0.0, 0.0 ],
						"openinpresentation" : 0,
						"default_fontsize" : 12.0,
						"default_fontface" : 0,
						"default_fontname" : "Arial",
						"gridonopen" : 0,
						"gridsize" : [ 8.0, 8.0 ],
						"gridsnaponopen" : 0,
						"toolbarvisible" : 1,
						"boxanimatetime" : 200,
						"imprint" : 0,
						"enablehscroll" : 1,
						"enablevscroll" : 1,
						"devicewidth" : 0.0,
						"boxes" : [ 							{
								"box" : 								{
									"maxclass" : "newobj",
									"text" : "* 44100.",
									"fontsize" : 12.0,
									"numinlets" : 2,
									"numoutlets" : 1,
									"patching_rect" : [ 50.0, 156.0, 55.0, 20.0 ],
									"id" : "obj-28",
									"fontname" : "Arial",
									"outlettype" : [ "float" ]
								}

							}
, 							{
								"box" : 								{
									"maxclass" : "newobj",
									"text" : "t f 1.",
									"fontsize" : 12.0,
									"numinlets" : 1,
									"numoutlets" : 2,
									"patching_rect" : [ 82.0, 124.0, 34.0, 20.0 ],
									"id" : "obj-27",
									"fontname" : "Arial",
									"outlettype" : [ "float", "float" ]
								}

							}
, 							{
								"box" : 								{
									"maxclass" : "newobj",
									"text" : "t 3",
									"fontsize" : 12.0,
									"numinlets" : 1,
									"numoutlets" : 1,
									"patching_rect" : [ 234.0, 196.0, 24.0, 20.0 ],
									"id" : "obj-26",
									"fontname" : "Arial",
									"outlettype" : [ "int" ]
								}

							}
, 							{
								"box" : 								{
									"maxclass" : "newobj",
									"text" : "t 2",
									"fontsize" : 12.0,
									"numinlets" : 1,
									"numoutlets" : 1,
									"patching_rect" : [ 186.0, 196.0, 24.0, 20.0 ],
									"id" : "obj-25",
									"fontname" : "Arial",
									"outlettype" : [ "int" ]
								}

							}
, 							{
								"box" : 								{
									"maxclass" : "newobj",
									"text" : "t 1",
									"fontsize" : 12.0,
									"numinlets" : 1,
									"numoutlets" : 1,
									"patching_rect" : [ 138.0, 196.0, 24.0, 20.0 ],
									"id" : "obj-24",
									"fontname" : "Arial",
									"outlettype" : [ "int" ]
								}

							}
, 							{
								"box" : 								{
									"maxclass" : "newobj",
									"text" : "split 22 24",
									"fontsize" : 12.0,
									"numinlets" : 3,
									"numoutlets" : 2,
									"patching_rect" : [ 234.0, 172.0, 65.0, 20.0 ],
									"id" : "obj-15",
									"fontname" : "Arial",
									"outlettype" : [ "int", "int" ]
								}

							}
, 							{
								"box" : 								{
									"maxclass" : "newobj",
									"text" : "split 17 19",
									"fontsize" : 12.0,
									"numinlets" : 3,
									"numoutlets" : 2,
									"patching_rect" : [ 186.0, 148.0, 65.0, 20.0 ],
									"id" : "obj-14",
									"fontname" : "Arial",
									"outlettype" : [ "int", "int" ]
								}

							}
, 							{
								"box" : 								{
									"maxclass" : "newobj",
									"text" : "split 12 14",
									"fontsize" : 12.0,
									"numinlets" : 3,
									"numoutlets" : 2,
									"patching_rect" : [ 138.0, 124.0, 65.0, 20.0 ],
									"id" : "obj-13",
									"fontname" : "Arial",
									"outlettype" : [ "int", "int" ]
								}

							}
, 							{
								"box" : 								{
									"maxclass" : "newobj",
									"text" : "unpack 0. 0.",
									"fontsize" : 12.0,
									"numinlets" : 1,
									"numoutlets" : 2,
									"patching_rect" : [ 82.0, 100.0, 76.0, 20.0 ],
									"id" : "obj-12",
									"fontname" : "Arial",
									"outlettype" : [ "float", "float" ]
								}

							}
, 							{
								"box" : 								{
									"maxclass" : "inlet",
									"numinlets" : 0,
									"numoutlets" : 1,
									"patching_rect" : [ 82.0, 40.0, 25.0, 25.0 ],
									"id" : "obj-59",
									"outlettype" : [ "" ],
									"comment" : ""
								}

							}
, 							{
								"box" : 								{
									"maxclass" : "outlet",
									"numinlets" : 1,
									"numoutlets" : 0,
									"patching_rect" : [ 50.0, 276.0, 25.0, 25.0 ],
									"id" : "obj-60",
									"comment" : ""
								}

							}
, 							{
								"box" : 								{
									"maxclass" : "outlet",
									"numinlets" : 1,
									"numoutlets" : 0,
									"patching_rect" : [ 97.0, 276.0, 25.0, 25.0 ],
									"id" : "obj-61",
									"comment" : ""
								}

							}
, 							{
								"box" : 								{
									"maxclass" : "outlet",
									"numinlets" : 1,
									"numoutlets" : 0,
									"patching_rect" : [ 181.0, 276.0, 25.0, 25.0 ],
									"id" : "obj-62",
									"comment" : ""
								}

							}
 ],
						"lines" : [ 							{
								"patchline" : 								{
									"source" : [ "obj-13", 1 ],
									"destination" : [ "obj-14", 0 ],
									"hidden" : 0,
									"midpoints" : [  ]
								}

							}
, 							{
								"patchline" : 								{
									"source" : [ "obj-14", 1 ],
									"destination" : [ "obj-15", 0 ],
									"hidden" : 0,
									"midpoints" : [  ]
								}

							}
, 							{
								"patchline" : 								{
									"source" : [ "obj-15", 0 ],
									"destination" : [ "obj-26", 0 ],
									"hidden" : 0,
									"midpoints" : [  ]
								}

							}
, 							{
								"patchline" : 								{
									"source" : [ "obj-14", 0 ],
									"destination" : [ "obj-25", 0 ],
									"hidden" : 0,
									"midpoints" : [  ]
								}

							}
, 							{
								"patchline" : 								{
									"source" : [ "obj-13", 0 ],
									"destination" : [ "obj-24", 0 ],
									"hidden" : 0,
									"midpoints" : [  ]
								}

							}
, 							{
								"patchline" : 								{
									"source" : [ "obj-12", 1 ],
									"destination" : [ "obj-13", 0 ],
									"hidden" : 0,
									"midpoints" : [  ]
								}

							}
, 							{
								"patchline" : 								{
									"source" : [ "obj-12", 0 ],
									"destination" : [ "obj-27", 0 ],
									"hidden" : 0,
									"midpoints" : [  ]
								}

							}
, 							{
								"patchline" : 								{
									"source" : [ "obj-27", 0 ],
									"destination" : [ "obj-28", 0 ],
									"hidden" : 0,
									"midpoints" : [  ]
								}

							}
, 							{
								"patchline" : 								{
									"source" : [ "obj-59", 0 ],
									"destination" : [ "obj-12", 0 ],
									"hidden" : 0,
									"midpoints" : [  ]
								}

							}
, 							{
								"patchline" : 								{
									"source" : [ "obj-28", 0 ],
									"destination" : [ "obj-60", 0 ],
									"hidden" : 0,
									"midpoints" : [  ]
								}

							}
, 							{
								"patchline" : 								{
									"source" : [ "obj-27", 1 ],
									"destination" : [ "obj-61", 0 ],
									"hidden" : 0,
									"midpoints" : [  ]
								}

							}
, 							{
								"patchline" : 								{
									"source" : [ "obj-24", 0 ],
									"destination" : [ "obj-62", 0 ],
									"hidden" : 0,
									"midpoints" : [  ]
								}

							}
, 							{
								"patchline" : 								{
									"source" : [ "obj-25", 0 ],
									"destination" : [ "obj-62", 0 ],
									"hidden" : 0,
									"midpoints" : [  ]
								}

							}
, 							{
								"patchline" : 								{
									"source" : [ "obj-26", 0 ],
									"destination" : [ "obj-62", 0 ],
									"hidden" : 0,
									"midpoints" : [  ]
								}

							}
 ]
					}
,
					"saved_object_attributes" : 					{
						"default_fontname" : "Arial",
						"globalpatchername" : "",
						"default_fontsize" : 12.0,
						"fontface" : 0,
						"fontsize" : 12.0,
						"default_fontface" : 0,
						"fontname" : "Arial"
					}

				}

			}
, 			{
				"box" : 				{
					"maxclass" : "newobj",
					"text" : "peek~ closest2",
					"fontsize" : 12.0,
					"numinlets" : 3,
					"numoutlets" : 1,
					"patching_rect" : [ 296.0, 288.0, 91.0, 20.0 ],
					"id" : "obj-65",
					"fontname" : "Arial",
					"outlettype" : [ "float" ]
				}

			}
, 			{
				"box" : 				{
					"maxclass" : "newobj",
					"text" : "p",
					"fontsize" : 12.0,
					"numinlets" : 1,
					"numoutlets" : 3,
					"patching_rect" : [ 192.0, 240.0, 91.0, 20.0 ],
					"id" : "obj-63",
					"fontname" : "Arial",
					"outlettype" : [ "float", "float", "int" ],
					"patcher" : 					{
						"fileversion" : 1,
						"rect" : [ 0.0, 0.0, 640.0, 480.0 ],
						"bglocked" : 0,
						"defrect" : [ 0.0, 0.0, 640.0, 480.0 ],
						"openrect" : [ 0.0, 0.0, 0.0, 0.0 ],
						"openinpresentation" : 0,
						"default_fontsize" : 12.0,
						"default_fontface" : 0,
						"default_fontname" : "Arial",
						"gridonopen" : 0,
						"gridsize" : [ 8.0, 8.0 ],
						"gridsnaponopen" : 0,
						"toolbarvisible" : 1,
						"boxanimatetime" : 200,
						"imprint" : 0,
						"enablehscroll" : 1,
						"enablevscroll" : 1,
						"devicewidth" : 0.0,
						"boxes" : [ 							{
								"box" : 								{
									"maxclass" : "newobj",
									"text" : "* 44100.",
									"fontsize" : 12.0,
									"numinlets" : 2,
									"numoutlets" : 1,
									"patching_rect" : [ 50.0, 156.0, 55.0, 20.0 ],
									"id" : "obj-28",
									"fontname" : "Arial",
									"outlettype" : [ "float" ]
								}

							}
, 							{
								"box" : 								{
									"maxclass" : "newobj",
									"text" : "t f 1.",
									"fontsize" : 12.0,
									"numinlets" : 1,
									"numoutlets" : 2,
									"patching_rect" : [ 82.0, 124.0, 34.0, 20.0 ],
									"id" : "obj-27",
									"fontname" : "Arial",
									"outlettype" : [ "float", "float" ]
								}

							}
, 							{
								"box" : 								{
									"maxclass" : "newobj",
									"text" : "t 3",
									"fontsize" : 12.0,
									"numinlets" : 1,
									"numoutlets" : 1,
									"patching_rect" : [ 234.0, 196.0, 24.0, 20.0 ],
									"id" : "obj-26",
									"fontname" : "Arial",
									"outlettype" : [ "int" ]
								}

							}
, 							{
								"box" : 								{
									"maxclass" : "newobj",
									"text" : "t 2",
									"fontsize" : 12.0,
									"numinlets" : 1,
									"numoutlets" : 1,
									"patching_rect" : [ 186.0, 196.0, 24.0, 20.0 ],
									"id" : "obj-25",
									"fontname" : "Arial",
									"outlettype" : [ "int" ]
								}

							}
, 							{
								"box" : 								{
									"maxclass" : "newobj",
									"text" : "t 1",
									"fontsize" : 12.0,
									"numinlets" : 1,
									"numoutlets" : 1,
									"patching_rect" : [ 138.0, 196.0, 24.0, 20.0 ],
									"id" : "obj-24",
									"fontname" : "Arial",
									"outlettype" : [ "int" ]
								}

							}
, 							{
								"box" : 								{
									"maxclass" : "newobj",
									"text" : "split 22 24",
									"fontsize" : 12.0,
									"numinlets" : 3,
									"numoutlets" : 2,
									"patching_rect" : [ 234.0, 172.0, 65.0, 20.0 ],
									"id" : "obj-15",
									"fontname" : "Arial",
									"outlettype" : [ "int", "int" ]
								}

							}
, 							{
								"box" : 								{
									"maxclass" : "newobj",
									"text" : "split 17 19",
									"fontsize" : 12.0,
									"numinlets" : 3,
									"numoutlets" : 2,
									"patching_rect" : [ 186.0, 148.0, 65.0, 20.0 ],
									"id" : "obj-14",
									"fontname" : "Arial",
									"outlettype" : [ "int", "int" ]
								}

							}
, 							{
								"box" : 								{
									"maxclass" : "newobj",
									"text" : "split 12 14",
									"fontsize" : 12.0,
									"numinlets" : 3,
									"numoutlets" : 2,
									"patching_rect" : [ 138.0, 124.0, 65.0, 20.0 ],
									"id" : "obj-13",
									"fontname" : "Arial",
									"outlettype" : [ "int", "int" ]
								}

							}
, 							{
								"box" : 								{
									"maxclass" : "newobj",
									"text" : "unpack 0. 0.",
									"fontsize" : 12.0,
									"numinlets" : 1,
									"numoutlets" : 2,
									"patching_rect" : [ 82.0, 100.0, 76.0, 20.0 ],
									"id" : "obj-12",
									"fontname" : "Arial",
									"outlettype" : [ "float", "float" ]
								}

							}
, 							{
								"box" : 								{
									"maxclass" : "inlet",
									"numinlets" : 0,
									"numoutlets" : 1,
									"patching_rect" : [ 82.0, 40.0, 25.0, 25.0 ],
									"id" : "obj-59",
									"outlettype" : [ "" ],
									"comment" : ""
								}

							}
, 							{
								"box" : 								{
									"maxclass" : "outlet",
									"numinlets" : 1,
									"numoutlets" : 0,
									"patching_rect" : [ 50.0, 276.0, 25.0, 25.0 ],
									"id" : "obj-60",
									"comment" : ""
								}

							}
, 							{
								"box" : 								{
									"maxclass" : "outlet",
									"numinlets" : 1,
									"numoutlets" : 0,
									"patching_rect" : [ 97.0, 276.0, 25.0, 25.0 ],
									"id" : "obj-61",
									"comment" : ""
								}

							}
, 							{
								"box" : 								{
									"maxclass" : "outlet",
									"numinlets" : 1,
									"numoutlets" : 0,
									"patching_rect" : [ 181.0, 276.0, 25.0, 25.0 ],
									"id" : "obj-62",
									"comment" : ""
								}

							}
 ],
						"lines" : [ 							{
								"patchline" : 								{
									"source" : [ "obj-26", 0 ],
									"destination" : [ "obj-62", 0 ],
									"hidden" : 0,
									"midpoints" : [  ]
								}

							}
, 							{
								"patchline" : 								{
									"source" : [ "obj-25", 0 ],
									"destination" : [ "obj-62", 0 ],
									"hidden" : 0,
									"midpoints" : [  ]
								}

							}
, 							{
								"patchline" : 								{
									"source" : [ "obj-24", 0 ],
									"destination" : [ "obj-62", 0 ],
									"hidden" : 0,
									"midpoints" : [  ]
								}

							}
, 							{
								"patchline" : 								{
									"source" : [ "obj-27", 1 ],
									"destination" : [ "obj-61", 0 ],
									"hidden" : 0,
									"midpoints" : [  ]
								}

							}
, 							{
								"patchline" : 								{
									"source" : [ "obj-28", 0 ],
									"destination" : [ "obj-60", 0 ],
									"hidden" : 0,
									"midpoints" : [  ]
								}

							}
, 							{
								"patchline" : 								{
									"source" : [ "obj-59", 0 ],
									"destination" : [ "obj-12", 0 ],
									"hidden" : 0,
									"midpoints" : [  ]
								}

							}
, 							{
								"patchline" : 								{
									"source" : [ "obj-27", 0 ],
									"destination" : [ "obj-28", 0 ],
									"hidden" : 0,
									"midpoints" : [  ]
								}

							}
, 							{
								"patchline" : 								{
									"source" : [ "obj-12", 0 ],
									"destination" : [ "obj-27", 0 ],
									"hidden" : 0,
									"midpoints" : [  ]
								}

							}
, 							{
								"patchline" : 								{
									"source" : [ "obj-12", 1 ],
									"destination" : [ "obj-13", 0 ],
									"hidden" : 0,
									"midpoints" : [  ]
								}

							}
, 							{
								"patchline" : 								{
									"source" : [ "obj-13", 0 ],
									"destination" : [ "obj-24", 0 ],
									"hidden" : 0,
									"midpoints" : [  ]
								}

							}
, 							{
								"patchline" : 								{
									"source" : [ "obj-14", 0 ],
									"destination" : [ "obj-25", 0 ],
									"hidden" : 0,
									"midpoints" : [  ]
								}

							}
, 							{
								"patchline" : 								{
									"source" : [ "obj-15", 0 ],
									"destination" : [ "obj-26", 0 ],
									"hidden" : 0,
									"midpoints" : [  ]
								}

							}
, 							{
								"patchline" : 								{
									"source" : [ "obj-14", 1 ],
									"destination" : [ "obj-15", 0 ],
									"hidden" : 0,
									"midpoints" : [  ]
								}

							}
, 							{
								"patchline" : 								{
									"source" : [ "obj-13", 1 ],
									"destination" : [ "obj-14", 0 ],
									"hidden" : 0,
									"midpoints" : [  ]
								}

							}
 ]
					}
,
					"saved_object_attributes" : 					{
						"default_fontname" : "Arial",
						"globalpatchername" : "",
						"default_fontsize" : 12.0,
						"fontface" : 0,
						"fontsize" : 12.0,
						"default_fontface" : 0,
						"fontname" : "Arial"
					}

				}

			}
, 			{
				"box" : 				{
					"maxclass" : "newobj",
					"text" : "resonators~ 660. 1. 7. 1200. 0.5 15.",
					"fontsize" : 12.0,
					"numinlets" : 1,
					"numoutlets" : 2,
					"patching_rect" : [ 856.0, 480.0, 201.0, 20.0 ],
					"id" : "obj-58",
					"fontname" : "Arial",
					"outlettype" : [ "signal", "list" ]
				}

			}
, 			{
				"box" : 				{
					"maxclass" : "newobj",
					"text" : "resonators~ 550. 1. 7. 1000. 0.5 15.",
					"fontsize" : 12.0,
					"numinlets" : 1,
					"numoutlets" : 2,
					"patching_rect" : [ 664.0, 480.0, 201.0, 20.0 ],
					"id" : "obj-57",
					"fontname" : "Arial",
					"outlettype" : [ "signal", "list" ]
				}

			}
, 			{
				"box" : 				{
					"maxclass" : "newobj",
					"text" : "*~ 100",
					"fontsize" : 12.0,
					"numinlets" : 2,
					"numoutlets" : 1,
					"patching_rect" : [ 696.0, 448.0, 46.0, 20.0 ],
					"id" : "obj-56",
					"fontname" : "Arial",
					"outlettype" : [ "signal" ]
				}

			}
, 			{
				"box" : 				{
					"maxclass" : "newobj",
					"text" : "*~ 100",
					"fontsize" : 12.0,
					"numinlets" : 2,
					"numoutlets" : 1,
					"patching_rect" : [ 584.0, 448.0, 46.0, 20.0 ],
					"id" : "obj-55",
					"fontname" : "Arial",
					"outlettype" : [ "signal" ]
				}

			}
, 			{
				"box" : 				{
					"maxclass" : "message",
					"text" : "stop",
					"fontsize" : 12.0,
					"numinlets" : 2,
					"numoutlets" : 1,
					"patching_rect" : [ 504.0, 344.0, 33.0, 18.0 ],
					"id" : "obj-44",
					"fontname" : "Arial",
					"outlettype" : [ "" ]
				}

			}
, 			{
				"box" : 				{
					"maxclass" : "button",
					"numinlets" : 1,
					"numoutlets" : 1,
					"patching_rect" : [ 472.0, 344.0, 20.0, 20.0 ],
					"id" : "obj-42",
					"outlettype" : [ "bang" ]
				}

			}
, 			{
				"box" : 				{
					"maxclass" : "ezdac~",
					"numinlets" : 2,
					"numoutlets" : 0,
					"patching_rect" : [ 472.0, 664.0, 45.0, 45.0 ],
					"id" : "obj-40"
				}

			}
, 			{
				"box" : 				{
					"maxclass" : "gain~",
					"numinlets" : 2,
					"numoutlets" : 2,
					"patching_rect" : [ 472.0, 512.0, 20.0, 140.0 ],
					"id" : "obj-39",
					"outlettype" : [ "signal", "int" ]
				}

			}
, 			{
				"box" : 				{
					"maxclass" : "newobj",
					"text" : "index~ closest1 3",
					"fontsize" : 12.0,
					"numinlets" : 2,
					"numoutlets" : 1,
					"patching_rect" : [ 696.0, 416.0, 104.0, 20.0 ],
					"id" : "obj-38",
					"fontname" : "Arial",
					"outlettype" : [ "signal" ]
				}

			}
, 			{
				"box" : 				{
					"maxclass" : "newobj",
					"text" : "index~ closest1 2",
					"fontsize" : 12.0,
					"numinlets" : 2,
					"numoutlets" : 1,
					"patching_rect" : [ 584.0, 416.0, 104.0, 20.0 ],
					"id" : "obj-36",
					"fontname" : "Arial",
					"outlettype" : [ "signal" ]
				}

			}
, 			{
				"box" : 				{
					"maxclass" : "newobj",
					"text" : "resonators~ 440. 1. 7. 800. 0.5 15.",
					"fontsize" : 12.0,
					"numinlets" : 1,
					"numoutlets" : 2,
					"patching_rect" : [ 472.0, 480.0, 194.0, 20.0 ],
					"id" : "obj-34",
					"fontname" : "Arial",
					"outlettype" : [ "signal", "list" ]
				}

			}
, 			{
				"box" : 				{
					"maxclass" : "newobj",
					"text" : "*~ 100",
					"fontsize" : 12.0,
					"numinlets" : 2,
					"numoutlets" : 1,
					"patching_rect" : [ 472.0, 448.0, 46.0, 20.0 ],
					"id" : "obj-33",
					"fontname" : "Arial",
					"outlettype" : [ "signal" ]
				}

			}
, 			{
				"box" : 				{
					"maxclass" : "newobj",
					"text" : "count~",
					"fontsize" : 12.0,
					"numinlets" : 2,
					"numoutlets" : 1,
					"patching_rect" : [ 472.0, 384.0, 47.0, 20.0 ],
					"id" : "obj-32",
					"fontname" : "Arial",
					"outlettype" : [ "signal" ]
				}

			}
, 			{
				"box" : 				{
					"maxclass" : "newobj",
					"text" : "index~ closest1 1",
					"fontsize" : 12.0,
					"numinlets" : 2,
					"numoutlets" : 1,
					"patching_rect" : [ 472.0, 416.0, 104.0, 20.0 ],
					"id" : "obj-31",
					"fontname" : "Arial",
					"outlettype" : [ "signal" ]
				}

			}
, 			{
				"box" : 				{
					"maxclass" : "newobj",
					"text" : "peek~ closest1",
					"fontsize" : 12.0,
					"numinlets" : 3,
					"numoutlets" : 1,
					"patching_rect" : [ 192.0, 288.0, 91.0, 20.0 ],
					"id" : "obj-7",
					"fontname" : "Arial",
					"outlettype" : [ "float" ]
				}

			}
, 			{
				"box" : 				{
					"maxclass" : "newobj",
					"text" : "buffer~ closest3 360000 3",
					"fontsize" : 12.0,
					"numinlets" : 1,
					"numoutlets" : 2,
					"patching_rect" : [ 24.0, 320.0, 149.0, 20.0 ],
					"id" : "obj-6",
					"fontname" : "Arial",
					"outlettype" : [ "float", "bang" ]
				}

			}
, 			{
				"box" : 				{
					"maxclass" : "newobj",
					"text" : "buffer~ closest2 360000 3",
					"fontsize" : 12.0,
					"numinlets" : 1,
					"numoutlets" : 2,
					"patching_rect" : [ 24.0, 296.0, 149.0, 20.0 ],
					"id" : "obj-5",
					"fontname" : "Arial",
					"outlettype" : [ "float", "bang" ]
				}

			}
, 			{
				"box" : 				{
					"maxclass" : "newobj",
					"text" : "buffer~ closest1 360000 3",
					"fontsize" : 12.0,
					"numinlets" : 1,
					"numoutlets" : 2,
					"patching_rect" : [ 24.0, 272.0, 149.0, 20.0 ],
					"id" : "obj-4",
					"fontname" : "Arial",
					"outlettype" : [ "float", "bang" ]
				}

			}
, 			{
				"box" : 				{
					"maxclass" : "newobj",
					"text" : "coll perc_closest_3.txt",
					"fontsize" : 12.0,
					"numinlets" : 1,
					"numoutlets" : 4,
					"patching_rect" : [ 24.0, 208.0, 129.0, 20.0 ],
					"id" : "obj-3",
					"fontname" : "Arial",
					"outlettype" : [ "", "", "", "" ],
					"saved_object_attributes" : 					{
						"embed" : 0
					}

				}

			}
, 			{
				"box" : 				{
					"maxclass" : "newobj",
					"text" : "coll perc_closest_2.txt",
					"fontsize" : 12.0,
					"numinlets" : 1,
					"numoutlets" : 4,
					"patching_rect" : [ 24.0, 184.0, 129.0, 20.0 ],
					"id" : "obj-2",
					"fontname" : "Arial",
					"outlettype" : [ "", "", "", "" ],
					"saved_object_attributes" : 					{
						"embed" : 0
					}

				}

			}
, 			{
				"box" : 				{
					"maxclass" : "newobj",
					"text" : "coll perc_closest_1.txt",
					"fontsize" : 12.0,
					"numinlets" : 1,
					"numoutlets" : 4,
					"patching_rect" : [ 24.0, 160.0, 129.0, 20.0 ],
					"id" : "obj-1",
					"fontname" : "Arial",
					"outlettype" : [ "", "", "", "" ],
					"saved_object_attributes" : 					{
						"embed" : 0
					}

				}

			}
 ],
		"lines" : [ 			{
				"patchline" : 				{
					"source" : [ "obj-32", 0 ],
					"destination" : [ "obj-17", 0 ],
					"hidden" : 0,
					"midpoints" : [  ]
				}

			}
, 			{
				"patchline" : 				{
					"source" : [ "obj-16", 0 ],
					"destination" : [ "obj-32", 0 ],
					"hidden" : 0,
					"midpoints" : [  ]
				}

			}
, 			{
				"patchline" : 				{
					"source" : [ "obj-8", 0 ],
					"destination" : [ "obj-16", 0 ],
					"hidden" : 0,
					"midpoints" : [  ]
				}

			}
, 			{
				"patchline" : 				{
					"source" : [ "obj-74", 0 ],
					"destination" : [ "obj-31", 0 ],
					"hidden" : 0,
					"midpoints" : [  ]
				}

			}
, 			{
				"patchline" : 				{
					"source" : [ "obj-74", 0 ],
					"destination" : [ "obj-36", 0 ],
					"hidden" : 0,
					"midpoints" : [  ]
				}

			}
, 			{
				"patchline" : 				{
					"source" : [ "obj-73", 0 ],
					"destination" : [ "obj-38", 0 ],
					"hidden" : 0,
					"midpoints" : [  ]
				}

			}
, 			{
				"patchline" : 				{
					"source" : [ "obj-73", 0 ],
					"destination" : [ "obj-31", 0 ],
					"hidden" : 0,
					"midpoints" : [  ]
				}

			}
, 			{
				"patchline" : 				{
					"source" : [ "obj-69", 0 ],
					"destination" : [ "obj-38", 0 ],
					"hidden" : 0,
					"midpoints" : [  ]
				}

			}
, 			{
				"patchline" : 				{
					"source" : [ "obj-69", 0 ],
					"destination" : [ "obj-36", 0 ],
					"hidden" : 0,
					"midpoints" : [  ]
				}

			}
, 			{
				"patchline" : 				{
					"source" : [ "obj-31", 0 ],
					"destination" : [ "obj-33", 0 ],
					"hidden" : 0,
					"midpoints" : [  ]
				}

			}
, 			{
				"patchline" : 				{
					"source" : [ "obj-32", 0 ],
					"destination" : [ "obj-31", 0 ],
					"hidden" : 0,
					"midpoints" : [  ]
				}

			}
, 			{
				"patchline" : 				{
					"source" : [ "obj-33", 0 ],
					"destination" : [ "obj-34", 0 ],
					"hidden" : 0,
					"midpoints" : [  ]
				}

			}
, 			{
				"patchline" : 				{
					"source" : [ "obj-34", 0 ],
					"destination" : [ "obj-39", 0 ],
					"hidden" : 0,
					"midpoints" : [  ]
				}

			}
, 			{
				"patchline" : 				{
					"source" : [ "obj-39", 0 ],
					"destination" : [ "obj-40", 0 ],
					"hidden" : 0,
					"midpoints" : [  ]
				}

			}
, 			{
				"patchline" : 				{
					"source" : [ "obj-39", 0 ],
					"destination" : [ "obj-40", 1 ],
					"hidden" : 0,
					"midpoints" : [  ]
				}

			}
, 			{
				"patchline" : 				{
					"source" : [ "obj-42", 0 ],
					"destination" : [ "obj-32", 0 ],
					"hidden" : 0,
					"midpoints" : [  ]
				}

			}
, 			{
				"patchline" : 				{
					"source" : [ "obj-32", 0 ],
					"destination" : [ "obj-36", 0 ],
					"hidden" : 0,
					"midpoints" : [  ]
				}

			}
, 			{
				"patchline" : 				{
					"source" : [ "obj-32", 0 ],
					"destination" : [ "obj-38", 0 ],
					"hidden" : 0,
					"midpoints" : [  ]
				}

			}
, 			{
				"patchline" : 				{
					"source" : [ "obj-44", 0 ],
					"destination" : [ "obj-32", 0 ],
					"hidden" : 0,
					"midpoints" : [  ]
				}

			}
, 			{
				"patchline" : 				{
					"source" : [ "obj-38", 0 ],
					"destination" : [ "obj-56", 0 ],
					"hidden" : 0,
					"midpoints" : [  ]
				}

			}
, 			{
				"patchline" : 				{
					"source" : [ "obj-36", 0 ],
					"destination" : [ "obj-55", 0 ],
					"hidden" : 0,
					"midpoints" : [  ]
				}

			}
, 			{
				"patchline" : 				{
					"source" : [ "obj-55", 0 ],
					"destination" : [ "obj-57", 0 ],
					"hidden" : 0,
					"midpoints" : [  ]
				}

			}
, 			{
				"patchline" : 				{
					"source" : [ "obj-56", 0 ],
					"destination" : [ "obj-58", 0 ],
					"hidden" : 0,
					"midpoints" : [  ]
				}

			}
, 			{
				"patchline" : 				{
					"source" : [ "obj-57", 0 ],
					"destination" : [ "obj-39", 0 ],
					"hidden" : 0,
					"midpoints" : [  ]
				}

			}
, 			{
				"patchline" : 				{
					"source" : [ "obj-58", 0 ],
					"destination" : [ "obj-39", 0 ],
					"hidden" : 0,
					"midpoints" : [  ]
				}

			}
, 			{
				"patchline" : 				{
					"source" : [ "obj-63", 2 ],
					"destination" : [ "obj-7", 2 ],
					"hidden" : 0,
					"midpoints" : [  ]
				}

			}
, 			{
				"patchline" : 				{
					"source" : [ "obj-63", 1 ],
					"destination" : [ "obj-7", 1 ],
					"hidden" : 0,
					"midpoints" : [  ]
				}

			}
, 			{
				"patchline" : 				{
					"source" : [ "obj-63", 0 ],
					"destination" : [ "obj-7", 0 ],
					"hidden" : 0,
					"midpoints" : [  ]
				}

			}
, 			{
				"patchline" : 				{
					"source" : [ "obj-64", 2 ],
					"destination" : [ "obj-65", 2 ],
					"hidden" : 0,
					"midpoints" : [  ]
				}

			}
, 			{
				"patchline" : 				{
					"source" : [ "obj-64", 1 ],
					"destination" : [ "obj-65", 1 ],
					"hidden" : 0,
					"midpoints" : [  ]
				}

			}
, 			{
				"patchline" : 				{
					"source" : [ "obj-64", 0 ],
					"destination" : [ "obj-65", 0 ],
					"hidden" : 0,
					"midpoints" : [  ]
				}

			}
, 			{
				"patchline" : 				{
					"source" : [ "obj-66", 0 ],
					"destination" : [ "obj-67", 0 ],
					"hidden" : 0,
					"midpoints" : [  ]
				}

			}
, 			{
				"patchline" : 				{
					"source" : [ "obj-66", 1 ],
					"destination" : [ "obj-67", 1 ],
					"hidden" : 0,
					"midpoints" : [  ]
				}

			}
, 			{
				"patchline" : 				{
					"source" : [ "obj-66", 2 ],
					"destination" : [ "obj-67", 2 ],
					"hidden" : 0,
					"midpoints" : [  ]
				}

			}
, 			{
				"patchline" : 				{
					"source" : [ "obj-2", 0 ],
					"destination" : [ "obj-64", 0 ],
					"hidden" : 0,
					"midpoints" : [  ]
				}

			}
, 			{
				"patchline" : 				{
					"source" : [ "obj-3", 0 ],
					"destination" : [ "obj-66", 0 ],
					"hidden" : 0,
					"midpoints" : [  ]
				}

			}
, 			{
				"patchline" : 				{
					"source" : [ "obj-69", 0 ],
					"destination" : [ "obj-31", 0 ],
					"hidden" : 0,
					"midpoints" : [  ]
				}

			}
, 			{
				"patchline" : 				{
					"source" : [ "obj-73", 0 ],
					"destination" : [ "obj-36", 0 ],
					"hidden" : 0,
					"midpoints" : [  ]
				}

			}
, 			{
				"patchline" : 				{
					"source" : [ "obj-74", 0 ],
					"destination" : [ "obj-38", 0 ],
					"hidden" : 0,
					"midpoints" : [  ]
				}

			}
, 			{
				"patchline" : 				{
					"source" : [ "obj-1", 0 ],
					"destination" : [ "obj-63", 0 ],
					"hidden" : 0,
					"midpoints" : [  ]
				}

			}
, 			{
				"patchline" : 				{
					"source" : [ "obj-9", 0 ],
					"destination" : [ "obj-10", 0 ],
					"hidden" : 0,
					"midpoints" : [  ]
				}

			}
, 			{
				"patchline" : 				{
					"source" : [ "obj-10", 0 ],
					"destination" : [ "obj-1", 0 ],
					"hidden" : 0,
					"midpoints" : [  ]
				}

			}
, 			{
				"patchline" : 				{
					"source" : [ "obj-10", 1 ],
					"destination" : [ "obj-2", 0 ],
					"hidden" : 0,
					"midpoints" : [  ]
				}

			}
, 			{
				"patchline" : 				{
					"source" : [ "obj-10", 2 ],
					"destination" : [ "obj-3", 0 ],
					"hidden" : 0,
					"midpoints" : [  ]
				}

			}
, 			{
				"patchline" : 				{
					"source" : [ "obj-11", 0 ],
					"destination" : [ "obj-12", 0 ],
					"hidden" : 0,
					"midpoints" : [  ]
				}

			}
, 			{
				"patchline" : 				{
					"source" : [ "obj-12", 1 ],
					"destination" : [ "obj-9", 1 ],
					"hidden" : 0,
					"midpoints" : [  ]
				}

			}
, 			{
				"patchline" : 				{
					"source" : [ "obj-12", 0 ],
					"destination" : [ "obj-13", 0 ],
					"hidden" : 0,
					"midpoints" : [  ]
				}

			}
, 			{
				"patchline" : 				{
					"source" : [ "obj-13", 2 ],
					"destination" : [ "obj-9", 2 ],
					"hidden" : 0,
					"midpoints" : [  ]
				}

			}
, 			{
				"patchline" : 				{
					"source" : [ "obj-13", 2 ],
					"destination" : [ "obj-9", 0 ],
					"hidden" : 0,
					"midpoints" : [  ]
				}

			}
, 			{
				"patchline" : 				{
					"source" : [ "obj-14", 0 ],
					"destination" : [ "obj-15", 0 ],
					"hidden" : 0,
					"midpoints" : [  ]
				}

			}
, 			{
				"patchline" : 				{
					"source" : [ "obj-15", 1 ],
					"destination" : [ "obj-4", 0 ],
					"hidden" : 0,
					"midpoints" : [  ]
				}

			}
, 			{
				"patchline" : 				{
					"source" : [ "obj-15", 1 ],
					"destination" : [ "obj-5", 0 ],
					"hidden" : 0,
					"midpoints" : [  ]
				}

			}
, 			{
				"patchline" : 				{
					"source" : [ "obj-15", 1 ],
					"destination" : [ "obj-6", 0 ],
					"hidden" : 0,
					"midpoints" : [  ]
				}

			}
, 			{
				"patchline" : 				{
					"source" : [ "obj-15", 0 ],
					"destination" : [ "obj-1", 0 ],
					"hidden" : 0,
					"midpoints" : [  ]
				}

			}
, 			{
				"patchline" : 				{
					"source" : [ "obj-15", 0 ],
					"destination" : [ "obj-2", 0 ],
					"hidden" : 0,
					"midpoints" : [  ]
				}

			}
, 			{
				"patchline" : 				{
					"source" : [ "obj-15", 0 ],
					"destination" : [ "obj-3", 0 ],
					"hidden" : 0,
					"midpoints" : [  ]
				}

			}
 ]
	}

}
