{
	"patcher" : 	{
		"fileversion" : 1,
		"rect" : [ 254.0, 44.0, 1426.0, 790.0 ],
		"bglocked" : 0,
		"defrect" : [ 254.0, 44.0, 1426.0, 790.0 ],
		"openrect" : [ 0.0, 0.0, 0.0, 0.0 ],
		"openinpresentation" : 0,
		"default_fontsize" : 12.0,
		"default_fontface" : 0,
		"default_fontname" : "Arial",
		"gridonopen" : 0,
		"gridsize" : [ 8.0, 8.0 ],
		"gridsnaponopen" : 0,
		"toolbarvisible" : 1,
		"boxanimatetime" : 200,
		"imprint" : 0,
		"enablehscroll" : 1,
		"enablevscroll" : 1,
		"devicewidth" : 0.0,
		"boxes" : [ 			{
				"box" : 				{
					"maxclass" : "newobj",
					"text" : "zl rev",
					"numinlets" : 2,
					"presentation_rect" : [ 290.0, 576.0, 0.0, 0.0 ],
					"numoutlets" : 2,
					"patching_rect" : [ 288.0, 576.0, 39.0, 20.0 ],
					"outlettype" : [ "", "" ],
					"id" : "obj-39",
					"fontname" : "Arial",
					"fontsize" : 12.0
				}

			}
, 			{
				"box" : 				{
					"maxclass" : "outlet",
					"numinlets" : 1,
					"numoutlets" : 0,
					"patching_rect" : [ 384.0, 736.0, 25.0, 25.0 ],
					"id" : "obj-37",
					"comment" : ""
				}

			}
, 			{
				"box" : 				{
					"maxclass" : "newobj",
					"text" : "+ 0.",
					"numinlets" : 2,
					"numoutlets" : 1,
					"patching_rect" : [ 192.0, 656.0, 32.5, 20.0 ],
					"outlettype" : [ "float" ],
					"id" : "obj-32",
					"fontname" : "Arial",
					"fontsize" : 12.0
				}

			}
, 			{
				"box" : 				{
					"maxclass" : "inlet",
					"numinlets" : 0,
					"numoutlets" : 1,
					"patching_rect" : [ 568.0, 104.0, 25.0, 25.0 ],
					"outlettype" : [ "" ],
					"id" : "obj-30",
					"comment" : ""
				}

			}
, 			{
				"box" : 				{
					"maxclass" : "newobj",
					"text" : "unpack 0. 1.",
					"numinlets" : 1,
					"numoutlets" : 2,
					"patching_rect" : [ 408.0, 624.0, 76.0, 20.0 ],
					"outlettype" : [ "float", "float" ],
					"id" : "obj-28",
					"fontname" : "Arial",
					"fontsize" : 12.0
				}

			}
, 			{
				"box" : 				{
					"maxclass" : "inlet",
					"numinlets" : 0,
					"numoutlets" : 1,
					"patching_rect" : [ 696.0, 104.0, 25.0, 25.0 ],
					"outlettype" : [ "" ],
					"id" : "obj-27",
					"comment" : ""
				}

			}
, 			{
				"box" : 				{
					"maxclass" : "newobj",
					"text" : "scale 0. 1. 0. 1.",
					"numinlets" : 6,
					"numoutlets" : 1,
					"patching_rect" : [ 288.0, 656.0, 92.0, 20.0 ],
					"outlettype" : [ "" ],
					"id" : "obj-2",
					"fontname" : "Arial",
					"fontsize" : 12.0
				}

			}
, 			{
				"box" : 				{
					"maxclass" : "outlet",
					"numinlets" : 1,
					"numoutlets" : 0,
					"patching_rect" : [ 192.0, 736.0, 25.0, 25.0 ],
					"id" : "obj-26",
					"comment" : ""
				}

			}
, 			{
				"box" : 				{
					"maxclass" : "flonum",
					"numinlets" : 1,
					"numoutlets" : 2,
					"patching_rect" : [ 1064.0, 160.0, 97.0, 20.0 ],
					"outlettype" : [ "float", "bang" ],
					"id" : "obj-51",
					"fontname" : "Arial",
					"fontsize" : 12.0
				}

			}
, 			{
				"box" : 				{
					"maxclass" : "flonum",
					"numinlets" : 1,
					"numoutlets" : 2,
					"patching_rect" : [ 944.0, 160.0, 97.0, 20.0 ],
					"outlettype" : [ "float", "bang" ],
					"id" : "obj-49",
					"fontname" : "Arial",
					"fontsize" : 12.0
				}

			}
, 			{
				"box" : 				{
					"maxclass" : "bdist",
					"numinlets" : 3,
					"a" : 3.0,
					"numoutlets" : 2,
					"b" : 2.0,
					"patching_rect" : [ 808.0, 200.0, 295.0, 175.0 ],
					"outlettype" : [ "", "" ],
					"color" : [ 1.0, 1.0, 1.0, 1.0 ],
					"id" : "obj-48",
					"fontname" : "Arial",
					"textcolor" : [  ],
					"fontsize" : 12.0
				}

			}
, 			{
				"box" : 				{
					"maxclass" : "newobj",
					"text" : "t b f",
					"numinlets" : 1,
					"numoutlets" : 2,
					"patching_rect" : [ 1096.0, 112.0, 32.5, 20.0 ],
					"outlettype" : [ "bang", "float" ],
					"id" : "obj-45",
					"fontname" : "Arial",
					"fontsize" : 12.0
				}

			}
, 			{
				"box" : 				{
					"maxclass" : "flonum",
					"numinlets" : 1,
					"numoutlets" : 2,
					"patching_rect" : [ 1096.0, 88.0, 97.0, 20.0 ],
					"outlettype" : [ "float", "bang" ],
					"id" : "obj-38",
					"fontname" : "Arial",
					"fontsize" : 12.0
				}

			}
, 			{
				"box" : 				{
					"maxclass" : "flonum",
					"numinlets" : 1,
					"numoutlets" : 2,
					"patching_rect" : [ 1096.0, 56.0, 97.0, 20.0 ],
					"outlettype" : [ "float", "bang" ],
					"id" : "obj-35",
					"fontname" : "Arial",
					"fontsize" : 12.0
				}

			}
, 			{
				"box" : 				{
					"maxclass" : "newobj",
					"text" : "expr (1 - $f1) * ((($f1 * (1 - $f1)) / $f2) - 1)",
					"numinlets" : 2,
					"numoutlets" : 1,
					"patching_rect" : [ 832.0, 80.0, 229.0, 20.0 ],
					"outlettype" : [ "" ],
					"id" : "obj-20",
					"fontname" : "Arial",
					"fontsize" : 12.0
				}

			}
, 			{
				"box" : 				{
					"maxclass" : "newobj",
					"text" : "expr $f1 * ((($f1 * (1 - $f1)) / $f2) - 1)",
					"numinlets" : 2,
					"numoutlets" : 1,
					"patching_rect" : [ 832.0, 40.0, 203.0, 20.0 ],
					"outlettype" : [ "" ],
					"id" : "obj-19",
					"fontname" : "Arial",
					"fontsize" : 12.0
				}

			}
, 			{
				"box" : 				{
					"maxclass" : "bdist",
					"numinlets" : 3,
					"a" : 2.0,
					"numoutlets" : 2,
					"b" : 10.0,
					"patching_rect" : [ 288.0, 608.0, 98.0, 33.0 ],
					"outlettype" : [ "", "" ],
					"color" : [ 1.0, 1.0, 1.0, 1.0 ],
					"id" : "obj-8",
					"fontname" : "Arial",
					"textcolor" : [  ],
					"fontsize" : 12.0
				}

			}
, 			{
				"box" : 				{
					"maxclass" : "bpf",
					"numinlets" : 1,
					"major_x_grid_width" : 50.0,
					"numoutlets" : 3,
					"xmax" : 360.0,
					"patching_rect" : [ 640.0, 416.0, 625.0, 253.0 ],
					"outlettype" : [ "list", "list", "list" ],
					"major_x_tics" : [  ],
					"color" : [ 1.0, 1.0, 1.0, 1.0 ],
					"id" : "obj-50",
					"fontname" : "Arial",
					"textcolor" : [  ],
					"minor_x_tics" : [  ],
					"minor_y_tics" : [  ],
					"major_y_tics" : [  ],
					"points" : [ 0.0, 0.0, 0.0, 1.0, 0.0, 0.0, 0.0, 1.0, 0.0, 0.0, 0.0, 0.0, 0.0, 0.0, 0.0, 0.0, 0, "0", 9, 0.0, 0.928831, 1.0, 45.232975, 0.12619, 1.0, 86.194717, 0.888736, 1.0, 127.822525, 0.183709, 1.0, 156.4785, 0.935694, 1.0, 191.852066, 0.024283, 1.0, 258.482574, 0.721764, 1.0, 319.702789, 0.075636, 1.0, 360.0, 0.906587, 1.0 ],
					"fontsize" : 12.0
				}

			}
, 			{
				"box" : 				{
					"maxclass" : "newobj",
					"text" : "prepend 0",
					"numinlets" : 1,
					"numoutlets" : 1,
					"patching_rect" : [ 192.0, 368.0, 65.0, 20.0 ],
					"outlettype" : [ "" ],
					"id" : "obj-43",
					"fontname" : "Arial",
					"fontsize" : 12.0
				}

			}
, 			{
				"box" : 				{
					"maxclass" : "newobj",
					"text" : "list-cumulative-sum",
					"numinlets" : 1,
					"numoutlets" : 1,
					"patching_rect" : [ 192.0, 344.0, 113.0, 20.0 ],
					"outlettype" : [ "" ],
					"id" : "obj-42",
					"fontname" : "Arial",
					"fontsize" : 12.0
				}

			}
, 			{
				"box" : 				{
					"maxclass" : "inlet",
					"numinlets" : 0,
					"numoutlets" : 1,
					"patching_rect" : [ 192.0, 40.0, 25.0, 25.0 ],
					"outlettype" : [ "" ],
					"id" : "obj-36",
					"comment" : ""
				}

			}
, 			{
				"box" : 				{
					"maxclass" : "flonum",
					"numinlets" : 1,
					"numoutlets" : 2,
					"patching_rect" : [ 432.0, 280.0, 50.0, 20.0 ],
					"outlettype" : [ "float", "bang" ],
					"id" : "obj-34",
					"fontname" : "Arial",
					"fontsize" : 12.0
				}

			}
, 			{
				"box" : 				{
					"maxclass" : "flonum",
					"numinlets" : 1,
					"numoutlets" : 2,
					"patching_rect" : [ 432.0, 192.0, 50.0, 20.0 ],
					"outlettype" : [ "float", "bang" ],
					"id" : "obj-33",
					"fontname" : "Arial",
					"fontsize" : 12.0
				}

			}
, 			{
				"box" : 				{
					"maxclass" : "newobj",
					"text" : "loadmess 60",
					"numinlets" : 1,
					"numoutlets" : 1,
					"patching_rect" : [ 352.0, 280.0, 79.0, 20.0 ],
					"outlettype" : [ "" ],
					"id" : "obj-31",
					"fontname" : "Arial",
					"fontsize" : 12.0
				}

			}
, 			{
				"box" : 				{
					"maxclass" : "newobj",
					"text" : "pack 0. 0.",
					"numinlets" : 2,
					"numoutlets" : 1,
					"patching_rect" : [ 192.0, 704.0, 63.0, 20.0 ],
					"outlettype" : [ "" ],
					"id" : "obj-29",
					"fontname" : "Arial",
					"fontsize" : 12.0
				}

			}
, 			{
				"box" : 				{
					"maxclass" : "flonum",
					"numinlets" : 1,
					"numoutlets" : 2,
					"minimum" : 1.0,
					"patching_rect" : [ 440.0, 464.0, 50.0, 20.0 ],
					"outlettype" : [ "float", "bang" ],
					"id" : "obj-25",
					"fontname" : "Arial",
					"fontsize" : 12.0
				}

			}
, 			{
				"box" : 				{
					"maxclass" : "inlet",
					"numinlets" : 0,
					"numoutlets" : 1,
					"patching_rect" : [ 648.0, 104.0, 25.0, 25.0 ],
					"outlettype" : [ "" ],
					"id" : "obj-24",
					"comment" : ""
				}

			}
, 			{
				"box" : 				{
					"maxclass" : "newobj",
					"text" : "pack 2. 3.",
					"numinlets" : 2,
					"numoutlets" : 1,
					"patching_rect" : [ 352.0, 552.0, 63.0, 20.0 ],
					"outlettype" : [ "" ],
					"id" : "obj-22",
					"fontname" : "Arial",
					"fontsize" : 12.0
				}

			}
, 			{
				"box" : 				{
					"maxclass" : "newobj",
					"text" : "pack 2. 3.",
					"numinlets" : 2,
					"numoutlets" : 1,
					"patching_rect" : [ 288.0, 552.0, 63.0, 20.0 ],
					"outlettype" : [ "" ],
					"id" : "obj-21",
					"fontname" : "Arial",
					"fontsize" : 12.0
				}

			}
, 			{
				"box" : 				{
					"maxclass" : "newobj",
					"text" : "sel 0 1",
					"numinlets" : 1,
					"numoutlets" : 3,
					"patching_rect" : [ 288.0, 528.0, 46.0, 20.0 ],
					"outlettype" : [ "bang", "bang", "" ],
					"id" : "obj-18",
					"fontname" : "Arial",
					"fontsize" : 12.0
				}

			}
, 			{
				"box" : 				{
					"maxclass" : "newobj",
					"text" : "% 2",
					"numinlets" : 2,
					"numoutlets" : 1,
					"patching_rect" : [ 288.0, 504.0, 32.5, 20.0 ],
					"outlettype" : [ "int" ],
					"id" : "obj-17",
					"fontname" : "Arial",
					"fontsize" : 12.0
				}

			}
, 			{
				"box" : 				{
					"maxclass" : "newobj",
					"text" : "counter",
					"numinlets" : 5,
					"numoutlets" : 4,
					"patching_rect" : [ 288.0, 480.0, 73.0, 20.0 ],
					"outlettype" : [ "int", "", "", "int" ],
					"id" : "obj-16",
					"fontname" : "Arial",
					"fontsize" : 12.0
				}

			}
, 			{
				"box" : 				{
					"maxclass" : "newobj",
					"text" : "t l 1",
					"numinlets" : 1,
					"numoutlets" : 2,
					"patching_rect" : [ 192.0, 408.0, 32.5, 20.0 ],
					"outlettype" : [ "", "int" ],
					"id" : "obj-15",
					"fontname" : "Arial",
					"fontsize" : 12.0
				}

			}
, 			{
				"box" : 				{
					"maxclass" : "newobj",
					"text" : "t f b b",
					"numinlets" : 1,
					"numoutlets" : 3,
					"patching_rect" : [ 192.0, 456.0, 46.0, 20.0 ],
					"outlettype" : [ "float", "bang", "bang" ],
					"id" : "obj-14",
					"fontname" : "Arial",
					"fontsize" : 12.0
				}

			}
, 			{
				"box" : 				{
					"maxclass" : "newobj",
					"text" : "zl iter 1",
					"numinlets" : 2,
					"numoutlets" : 2,
					"patching_rect" : [ 192.0, 432.0, 49.0, 20.0 ],
					"outlettype" : [ "", "" ],
					"id" : "obj-13",
					"fontname" : "Arial",
					"fontsize" : 12.0
				}

			}
, 			{
				"box" : 				{
					"maxclass" : "inlet",
					"numinlets" : 0,
					"numoutlets" : 1,
					"patching_rect" : [ 464.0, 104.0, 25.0, 25.0 ],
					"outlettype" : [ "" ],
					"id" : "obj-12",
					"comment" : ""
				}

			}
, 			{
				"box" : 				{
					"maxclass" : "inlet",
					"numinlets" : 0,
					"numoutlets" : 1,
					"patching_rect" : [ 512.0, 104.0, 25.0, 25.0 ],
					"outlettype" : [ "" ],
					"id" : "obj-11",
					"comment" : ""
				}

			}
, 			{
				"box" : 				{
					"maxclass" : "comment",
					"text" : "craziness",
					"numinlets" : 1,
					"numoutlets" : 0,
					"patching_rect" : [ 368.0, 224.0, 150.0, 20.0 ],
					"id" : "obj-10",
					"fontname" : "Arial",
					"fontsize" : 12.0
				}

			}
, 			{
				"box" : 				{
					"maxclass" : "comment",
					"text" : "total length of the thing",
					"numinlets" : 1,
					"numoutlets" : 0,
					"patching_rect" : [ 368.0, 320.0, 150.0, 20.0 ],
					"id" : "obj-9",
					"fontname" : "Arial",
					"fontsize" : 12.0
				}

			}
, 			{
				"box" : 				{
					"maxclass" : "newobj",
					"text" : "vexpr $f1 * $f2 @scalarmode 1",
					"numinlets" : 2,
					"numoutlets" : 1,
					"patching_rect" : [ 192.0, 320.0, 175.0, 20.0 ],
					"outlettype" : [ "" ],
					"id" : "obj-7",
					"fontname" : "Arial",
					"fontsize" : 12.0
				}

			}
, 			{
				"box" : 				{
					"maxclass" : "newobj",
					"text" : "t b l clear",
					"numinlets" : 1,
					"numoutlets" : 3,
					"patching_rect" : [ 192.0, 272.0, 59.0, 20.0 ],
					"outlettype" : [ "bang", "", "clear" ],
					"id" : "obj-6",
					"fontname" : "Arial",
					"fontsize" : 12.0
				}

			}
, 			{
				"box" : 				{
					"maxclass" : "newobj",
					"text" : "prepend dirichlet",
					"numinlets" : 1,
					"numoutlets" : 1,
					"patching_rect" : [ 192.0, 248.0, 99.0, 20.0 ],
					"outlettype" : [ "" ],
					"id" : "obj-5",
					"fontname" : "Arial",
					"fontsize" : 12.0
				}

			}
, 			{
				"box" : 				{
					"maxclass" : "newobj",
					"text" : "loadmess 1",
					"numinlets" : 1,
					"numoutlets" : 1,
					"patching_rect" : [ 352.0, 192.0, 72.0, 20.0 ],
					"outlettype" : [ "" ],
					"id" : "obj-4",
					"fontname" : "Arial",
					"fontsize" : 12.0
				}

			}
, 			{
				"box" : 				{
					"maxclass" : "newobj",
					"text" : "vexpr $f1 * $f2 @scalarmode 1",
					"numinlets" : 2,
					"numoutlets" : 1,
					"patching_rect" : [ 192.0, 224.0, 175.0, 20.0 ],
					"outlettype" : [ "" ],
					"id" : "obj-3",
					"fontname" : "Arial",
					"fontsize" : 12.0
				}

			}
, 			{
				"box" : 				{
					"maxclass" : "newobj",
					"text" : "randdist",
					"numinlets" : 1,
					"numoutlets" : 1,
					"patching_rect" : [ 192.0, 296.0, 53.0, 20.0 ],
					"outlettype" : [ "" ],
					"id" : "obj-1",
					"fontname" : "Arial",
					"fontsize" : 12.0
				}

			}
 ],
		"lines" : [ 			{
				"patchline" : 				{
					"source" : [ "obj-22", 0 ],
					"destination" : [ "obj-8", 1 ],
					"hidden" : 0,
					"midpoints" : [  ]
				}

			}
, 			{
				"patchline" : 				{
					"source" : [ "obj-39", 0 ],
					"destination" : [ "obj-8", 1 ],
					"hidden" : 0,
					"midpoints" : [  ]
				}

			}
, 			{
				"patchline" : 				{
					"source" : [ "obj-21", 0 ],
					"destination" : [ "obj-39", 0 ],
					"hidden" : 0,
					"midpoints" : [  ]
				}

			}
, 			{
				"patchline" : 				{
					"source" : [ "obj-30", 0 ],
					"destination" : [ "obj-32", 1 ],
					"hidden" : 0,
					"midpoints" : [  ]
				}

			}
, 			{
				"patchline" : 				{
					"source" : [ "obj-32", 0 ],
					"destination" : [ "obj-29", 0 ],
					"hidden" : 0,
					"midpoints" : [  ]
				}

			}
, 			{
				"patchline" : 				{
					"source" : [ "obj-14", 0 ],
					"destination" : [ "obj-32", 0 ],
					"hidden" : 0,
					"midpoints" : [  ]
				}

			}
, 			{
				"patchline" : 				{
					"source" : [ "obj-36", 0 ],
					"destination" : [ "obj-3", 0 ],
					"hidden" : 0,
					"midpoints" : [  ]
				}

			}
, 			{
				"patchline" : 				{
					"source" : [ "obj-19", 0 ],
					"destination" : [ "obj-49", 0 ],
					"hidden" : 0,
					"midpoints" : [  ]
				}

			}
, 			{
				"patchline" : 				{
					"source" : [ "obj-20", 0 ],
					"destination" : [ "obj-51", 0 ],
					"hidden" : 0,
					"midpoints" : [  ]
				}

			}
, 			{
				"patchline" : 				{
					"source" : [ "obj-18", 1 ],
					"destination" : [ "obj-22", 0 ],
					"hidden" : 0,
					"midpoints" : [  ]
				}

			}
, 			{
				"patchline" : 				{
					"source" : [ "obj-25", 0 ],
					"destination" : [ "obj-22", 1 ],
					"hidden" : 0,
					"midpoints" : [  ]
				}

			}
, 			{
				"patchline" : 				{
					"source" : [ "obj-18", 0 ],
					"destination" : [ "obj-21", 0 ],
					"hidden" : 0,
					"midpoints" : [  ]
				}

			}
, 			{
				"patchline" : 				{
					"source" : [ "obj-25", 0 ],
					"destination" : [ "obj-21", 1 ],
					"hidden" : 0,
					"midpoints" : [  ]
				}

			}
, 			{
				"patchline" : 				{
					"source" : [ "obj-49", 0 ],
					"destination" : [ "obj-48", 1 ],
					"hidden" : 0,
					"midpoints" : [  ]
				}

			}
, 			{
				"patchline" : 				{
					"source" : [ "obj-51", 0 ],
					"destination" : [ "obj-48", 2 ],
					"hidden" : 0,
					"midpoints" : [  ]
				}

			}
, 			{
				"patchline" : 				{
					"source" : [ "obj-14", 1 ],
					"destination" : [ "obj-8", 0 ],
					"hidden" : 0,
					"midpoints" : [  ]
				}

			}
, 			{
				"patchline" : 				{
					"source" : [ "obj-14", 2 ],
					"destination" : [ "obj-16", 0 ],
					"hidden" : 0,
					"midpoints" : [  ]
				}

			}
, 			{
				"patchline" : 				{
					"source" : [ "obj-13", 0 ],
					"destination" : [ "obj-14", 0 ],
					"hidden" : 0,
					"midpoints" : [  ]
				}

			}
, 			{
				"patchline" : 				{
					"source" : [ "obj-45", 0 ],
					"destination" : [ "obj-20", 0 ],
					"hidden" : 0,
					"midpoints" : [  ]
				}

			}
, 			{
				"patchline" : 				{
					"source" : [ "obj-45", 0 ],
					"destination" : [ "obj-19", 0 ],
					"hidden" : 0,
					"midpoints" : [  ]
				}

			}
, 			{
				"patchline" : 				{
					"source" : [ "obj-45", 1 ],
					"destination" : [ "obj-20", 1 ],
					"hidden" : 0,
					"midpoints" : [  ]
				}

			}
, 			{
				"patchline" : 				{
					"source" : [ "obj-45", 1 ],
					"destination" : [ "obj-19", 1 ],
					"hidden" : 0,
					"midpoints" : [  ]
				}

			}
, 			{
				"patchline" : 				{
					"source" : [ "obj-38", 0 ],
					"destination" : [ "obj-45", 0 ],
					"hidden" : 0,
					"midpoints" : [  ]
				}

			}
, 			{
				"patchline" : 				{
					"source" : [ "obj-35", 0 ],
					"destination" : [ "obj-20", 0 ],
					"hidden" : 0,
					"midpoints" : [  ]
				}

			}
, 			{
				"patchline" : 				{
					"source" : [ "obj-35", 0 ],
					"destination" : [ "obj-19", 0 ],
					"hidden" : 0,
					"midpoints" : [  ]
				}

			}
, 			{
				"patchline" : 				{
					"source" : [ "obj-6", 2 ],
					"destination" : [ "obj-50", 0 ],
					"hidden" : 0,
					"midpoints" : [  ]
				}

			}
, 			{
				"patchline" : 				{
					"source" : [ "obj-5", 0 ],
					"destination" : [ "obj-6", 0 ],
					"hidden" : 0,
					"midpoints" : [  ]
				}

			}
, 			{
				"patchline" : 				{
					"source" : [ "obj-6", 1 ],
					"destination" : [ "obj-1", 0 ],
					"hidden" : 0,
					"midpoints" : [  ]
				}

			}
, 			{
				"patchline" : 				{
					"source" : [ "obj-6", 0 ],
					"destination" : [ "obj-1", 0 ],
					"hidden" : 0,
					"midpoints" : [  ]
				}

			}
, 			{
				"patchline" : 				{
					"source" : [ "obj-29", 0 ],
					"destination" : [ "obj-50", 0 ],
					"hidden" : 0,
					"midpoints" : [  ]
				}

			}
, 			{
				"patchline" : 				{
					"source" : [ "obj-43", 0 ],
					"destination" : [ "obj-15", 0 ],
					"hidden" : 0,
					"midpoints" : [  ]
				}

			}
, 			{
				"patchline" : 				{
					"source" : [ "obj-42", 0 ],
					"destination" : [ "obj-43", 0 ],
					"hidden" : 0,
					"midpoints" : [  ]
				}

			}
, 			{
				"patchline" : 				{
					"source" : [ "obj-7", 0 ],
					"destination" : [ "obj-42", 0 ],
					"hidden" : 0,
					"midpoints" : [  ]
				}

			}
, 			{
				"patchline" : 				{
					"source" : [ "obj-34", 0 ],
					"destination" : [ "obj-7", 1 ],
					"hidden" : 0,
					"midpoints" : [  ]
				}

			}
, 			{
				"patchline" : 				{
					"source" : [ "obj-33", 0 ],
					"destination" : [ "obj-3", 1 ],
					"hidden" : 0,
					"midpoints" : [  ]
				}

			}
, 			{
				"patchline" : 				{
					"source" : [ "obj-24", 0 ],
					"destination" : [ "obj-25", 0 ],
					"hidden" : 0,
					"midpoints" : [  ]
				}

			}
, 			{
				"patchline" : 				{
					"source" : [ "obj-17", 0 ],
					"destination" : [ "obj-18", 0 ],
					"hidden" : 0,
					"midpoints" : [  ]
				}

			}
, 			{
				"patchline" : 				{
					"source" : [ "obj-16", 0 ],
					"destination" : [ "obj-17", 0 ],
					"hidden" : 0,
					"midpoints" : [  ]
				}

			}
, 			{
				"patchline" : 				{
					"source" : [ "obj-15", 1 ],
					"destination" : [ "obj-16", 2 ],
					"hidden" : 0,
					"midpoints" : [  ]
				}

			}
, 			{
				"patchline" : 				{
					"source" : [ "obj-15", 0 ],
					"destination" : [ "obj-13", 0 ],
					"hidden" : 0,
					"midpoints" : [  ]
				}

			}
, 			{
				"patchline" : 				{
					"source" : [ "obj-12", 0 ],
					"destination" : [ "obj-3", 1 ],
					"hidden" : 0,
					"midpoints" : [  ]
				}

			}
, 			{
				"patchline" : 				{
					"source" : [ "obj-11", 0 ],
					"destination" : [ "obj-7", 1 ],
					"hidden" : 0,
					"midpoints" : [  ]
				}

			}
, 			{
				"patchline" : 				{
					"source" : [ "obj-1", 0 ],
					"destination" : [ "obj-7", 0 ],
					"hidden" : 0,
					"midpoints" : [  ]
				}

			}
, 			{
				"patchline" : 				{
					"source" : [ "obj-3", 0 ],
					"destination" : [ "obj-5", 0 ],
					"hidden" : 0,
					"midpoints" : [  ]
				}

			}
, 			{
				"patchline" : 				{
					"source" : [ "obj-4", 0 ],
					"destination" : [ "obj-3", 1 ],
					"hidden" : 0,
					"midpoints" : [  ]
				}

			}
, 			{
				"patchline" : 				{
					"source" : [ "obj-31", 0 ],
					"destination" : [ "obj-7", 1 ],
					"hidden" : 0,
					"midpoints" : [  ]
				}

			}
, 			{
				"patchline" : 				{
					"source" : [ "obj-29", 0 ],
					"destination" : [ "obj-26", 0 ],
					"hidden" : 0,
					"midpoints" : [  ]
				}

			}
, 			{
				"patchline" : 				{
					"source" : [ "obj-8", 0 ],
					"destination" : [ "obj-2", 0 ],
					"hidden" : 0,
					"midpoints" : [  ]
				}

			}
, 			{
				"patchline" : 				{
					"source" : [ "obj-2", 0 ],
					"destination" : [ "obj-29", 1 ],
					"hidden" : 0,
					"midpoints" : [  ]
				}

			}
, 			{
				"patchline" : 				{
					"source" : [ "obj-28", 0 ],
					"destination" : [ "obj-2", 3 ],
					"hidden" : 0,
					"midpoints" : [  ]
				}

			}
, 			{
				"patchline" : 				{
					"source" : [ "obj-28", 1 ],
					"destination" : [ "obj-2", 4 ],
					"hidden" : 0,
					"midpoints" : [  ]
				}

			}
, 			{
				"patchline" : 				{
					"source" : [ "obj-27", 0 ],
					"destination" : [ "obj-28", 0 ],
					"hidden" : 0,
					"midpoints" : [  ]
				}

			}
, 			{
				"patchline" : 				{
					"source" : [ "obj-7", 0 ],
					"destination" : [ "obj-37", 0 ],
					"hidden" : 0,
					"midpoints" : [  ]
				}

			}
 ]
	}

}
